<svg version="1" xmlns="http://www.w3.org/2000/svg" width="833.333" height="833.333" viewBox="0 0 625.000000 625.000000"><path d="M286 13.1c-91.7 7.5-177.9 60-227.5 138.5-75 118.9-57.8 272.8 41.4 372.3 117 117.3 306.9 117.3 424.1.1 92.7-92.7 114.6-235.4 53.8-350.9C521.3 65.6 407.6 3.2 286 13.1zm105.5 279.5c31 95.6 33.2 101.8 36.3 104.5 2.7 2.4 4.1 2.9 8.7 2.9h5.5v36H328v-36h14.5c8 0 14.5-.3 14.5-.8 0-.4-2.6-9.1-5.7-19.4l-5.8-18.8-39.9.3-39.9.2-2.4 7c-5.5 16.3-5.2 25.8 1 29.5 2.6 1.6 5 2 13 2h9.7v36l-49.2-.2-49.3-.3v-35l6.2-.5c10.9-.9 8.7 3.8 40.3-85 15.4-43.1 28-79.6 28-81.1 0-4.5-3.1-5.9-13.2-5.9H241v-37h117.5l33 101.6z"/><path d="M292.7 283.9c-8.1 23.1-14.7 42.2-14.7 42.5 0 .3 12.9.6 28.6.6 22.4 0 28.5-.3 28.1-1.3-.2-.6-6.2-19.8-13.3-42.4-7.1-22.7-13.1-41.3-13.5-41.3-.3 0-7.1 18.9-15.2 41.9z"/></svg>